{
	"asset":{
		"generator":"Khronos glTF Blender I/O v4.0.44",
		"version":"2.0"
	},
	"scene":0,
	"scenes":[
		{
			"name":"Scene",
			"nodes":[
				4
			]
		}
	],
	"nodes":[
		{
			"mesh":0,
			"name":"helicopter_box_0"
		},
		{
			"children":[
				0
			],
			"name":"helicopter_box"
		},
		{
			"name":"Plane",
			"scale":[
				0.5285900235176086,
				0.4286800026893616,
				0.4286800026893616
			],
			"translation":[
				0,
				0,
				0.03654000163078308
			]
		},
		{
			"children":[
				1,
				2
			],
			"name":"Root"
		},
		{
			"children":[
				3
			],
			"name":"Sketchfab_model",
			"rotation":[
				-0.70710688829422,
				0,
				0,
				0.7071066498756409
			]
		}
	],
	"materials":[
		{
			"emissiveTexture":{
				"index":0
			},
			"name":"Hely",
			"normalTexture":{
				"index":1
			},
			"occlusionTexture":{
				"index":2,
				"strength":0.25999999046325684
			},
			"pbrMetallicRoughness":{
				"baseColorTexture":{
					"index":3
				},
				"metallicRoughnessTexture":{
					"index":2
				}
			}
		}
	],
	"meshes":[
		{
			"name":"helicopter_box_0",
			"primitives":[
				{
					"attributes":{
						"POSITION":0,
						"NORMAL":1,
						"TEXCOORD_0":2,
						"TEXCOORD_1":3,
						"TEXCOORD_2":4,
						"TEXCOORD_3":5
					},
					"indices":6,
					"material":0
				}
			]
		}
	],
	"textures":[
		{
			"sampler":0,
			"source":0
		},
		{
			"sampler":0,
			"source":1
		},
		{
			"sampler":0,
			"source":2
		},
		{
			"sampler":0,
			"source":3
		}
	],
	"images":[
		{
			"mimeType":"image/png",
			"name":"Hely_emissive",
			"uri":"Hely_emissive.png"
		},
		{
			"mimeType":"image/png",
			"name":"Hely_normal",
			"uri":"Hely_normal.png"
		},
		{
			"mimeType":"image/png",
			"name":"Hely_metallicRoughness",
			"uri":"Hely_metallicRoughness.png"
		},
		{
			"mimeType":"image/png",
			"name":"Hely_baseColor",
			"uri":"Hely_baseColor.png"
		}
	],
	"accessors":[
		{
			"bufferView":0,
			"componentType":5126,
			"count":34186,
			"max":[
				0.3859800100326538,
				0.14583000540733337,
				0.059220001101493835
			],
			"min":[
				-0.3859800100326538,
				-0.147939994931221,
				-0.06270000338554382
			],
			"type":"VEC3"
		},
		{
			"bufferView":1,
			"componentType":5126,
			"count":34186,
			"type":"VEC3"
		},
		{
			"bufferView":2,
			"componentType":5126,
			"count":34186,
			"type":"VEC2"
		},
		{
			"bufferView":3,
			"componentType":5126,
			"count":34186,
			"type":"VEC2"
		},
		{
			"bufferView":4,
			"componentType":5126,
			"count":34186,
			"type":"VEC2"
		},
		{
			"bufferView":5,
			"componentType":5126,
			"count":34186,
			"type":"VEC2"
		},
		{
			"bufferView":6,
			"componentType":5123,
			"count":142656,
			"type":"SCALAR"
		}
	],
	"bufferViews":[
		{
			"buffer":0,
			"byteLength":410232,
			"byteOffset":0,
			"target":34962
		},
		{
			"buffer":0,
			"byteLength":410232,
			"byteOffset":410232,
			"target":34962
		},
		{
			"buffer":0,
			"byteLength":273488,
			"byteOffset":820464,
			"target":34962
		},
		{
			"buffer":0,
			"byteLength":273488,
			"byteOffset":1093952,
			"target":34962
		},
		{
			"buffer":0,
			"byteLength":273488,
			"byteOffset":1367440,
			"target":34962
		},
		{
			"buffer":0,
			"byteLength":273488,
			"byteOffset":1640928,
			"target":34962
		},
		{
			"buffer":0,
			"byteLength":285312,
			"byteOffset":1914416,
			"target":34963
		}
	],
	"samplers":[
		{
			"magFilter":9729,
			"minFilter":9987
		}
	],
	"buffers":[
		{
			"byteLength":2199728,
			"uri":"scene2.bin"
		}
	]
}
